<?xml version="1.0" standalone="no"?>
<!DOCTYPE svg PUBLIC "-//W3C//DTD SVG 20010904//EN"
 "http://www.w3.org/TR/2001/REC-SVG-20010904/DTD/svg10.dtd">
<svg version="1.0" xmlns="http://www.w3.org/2000/svg"
 width="312.000000pt" height="312.000000pt" viewBox="0 0 312.000000 312.000000"
 preserveAspectRatio="xMidYMid meet">
<metadata>
Created by potrace 1.14, written by Peter Selinger 2001-2017
</metadata>
<g transform="translate(0.000000,312.000000) scale(0.100000,-0.100000)"
fill="#000000" stroke="none">
<path d="M2197 3029 c-10 -6 -59 -65 -110 -133 l-92 -122 -83 42 c-107 55
-231 84 -353 84 -449 0 -804 -378 -776 -825 7 -110 27 -187 72 -283 l35 -74
-320 -554 c-176 -305 -320 -565 -320 -578 0 -47 17 -50 277 -61 l245 -10 118
-200 c67 -113 126 -203 138 -208 52 -23 58 -16 296 398 126 217 232 395 236
395 4 0 110 -178 236 -395 238 -414 244 -421 296 -398 12 5 71 95 138 208
l118 200 245 10 c260 11 277 14 277 61 0 14 -143 273 -320 578 l-320 554 35
74 c57 120 70 185 69 338 0 130 -1 139 -38 240 -20 58 -39 112 -42 121 -3 10
37 67 110 155 117 141 132 171 104 205 -16 19 -116 103 -181 152 -52 39 -62
42 -90 26z m91 -187 l44 -38 -352 -429 c-193 -237 -356 -432 -361 -434 -9 -3
-33 18 -196 172 l-62 58 22 34 c12 19 28 35 35 35 8 0 48 -31 90 -70 78 -72
110 -85 144 -57 9 6 142 182 297 390 154 207 284 377 288 377 5 0 28 -18 51
-38z m-540 -94 c85 -26 162 -65 162 -81 -1 -6 -10 -23 -21 -36 l-19 -24 -68
31 c-88 41 -139 51 -242 52 -159 0 -292 -55 -406 -168 -173 -173 -213 -432
-102 -662 42 -87 158 -203 249 -247 230 -113 479 -72 660 107 146 145 201 338
154 538 l-15 63 27 35 27 36 12 -24 c45 -86 59 -277 30 -402 -42 -176 -176
-346 -336 -424 -111 -55 -184 -72 -300 -72 -181 0 -334 63 -460 189 -131 132
-193 281 -192 466 1 178 56 315 178 443 104 111 230 179 374 202 78 12 210 2
288 -22z m-96 -189 c43 -9 120 -40 136 -54 5 -5 -177 -245 -186 -245 -4 0 -45
34 -91 75 -118 106 -124 105 -228 -52 -71 -105 -76 -117 -62 -146 13 -25 349
-337 379 -351 40 -18 66 6 232 210 l167 205 7 -38 c4 -21 2 -69 -5 -108 -41
-245 -263 -409 -508 -374 -237 34 -414 271 -375 504 43 258 284 427 534 374z
m-534 -1081 c126 -87 271 -131 432 -132 l115 -1 -300 -520 c-165 -286 -306
-520 -312 -520 -7 0 -53 70 -104 155 -50 85 -97 162 -105 170 -12 12 -55 16
-219 20 l-205 5 98 170 c55 94 178 308 275 476 l177 305 52 -49 c29 -27 72
-63 96 -79z m1311 -353 l271 -470 -205 -5 c-164 -4 -207 -8 -219 -20 -8 -8
-55 -85 -105 -170 -51 -85 -97 -155 -104 -155 -6 0 -48 63 -93 140 -44 77
-139 242 -211 366 l-131 227 102 175 101 176 80 40 c80 40 225 152 225 173 0
8 3 8 9 3 5 -6 131 -221 280 -480z"/>
<path d="M875 1260 c-21 -23 -23 -67 -4 -84 24 -22 386 -226 400 -226 8 0 25
7 37 16 18 12 22 24 20 52 -3 37 -5 38 -198 149 -107 62 -204 113 -216 113
-11 0 -29 -9 -39 -20z"/>
<path d="M765 1065 c-29 -28 -31 -42 -10 -72 21 -30 376 -233 407 -233 50 0
78 69 41 102 -27 23 -387 228 -401 228 -7 0 -24 -11 -37 -25z"/>
<path d="M1990 1167 c-193 -111 -195 -112 -198 -149 -2 -28 2 -40 20 -52 12
-9 29 -16 37 -16 14 0 376 204 400 226 33 30 2 104 -43 104 -12 0 -109 -51
-216 -113z"/>
<path d="M2119 982 c-103 -59 -194 -114 -203 -121 -37 -31 -7 -101 44 -101 30
0 385 204 405 233 8 12 15 27 15 35 0 17 -45 62 -62 62 -7 0 -97 -49 -199
-108z"/>
</g>
</svg>
